<svg width="70" height="70" viewBox="0 0 70 70" fill="none" xmlns="http://www.w3.org/2000/svg">
<path d="M70 23C70 32.9411 61.9411 41 52 41C42.0589 41 34 32.9411 34 23C34 13.0589 42.0589 5 52 5C61.9411 5 70 13.0589 70 23Z" fill="url(#paint0_linear_112_409)"/>
<path d="M52.1681 65H14.2382C10.5587 64.9973 7.02295 63.6295 4.3711 61.1829C1.71925 58.7363 0.156924 55.4006 0.0111913 51.8741C-0.134542 48.3476 1.14762 44.9037 3.58925 42.2634C6.03088 39.6232 9.44269 37.9912 13.1104 37.7092C13.6335 34.1667 15.3012 30.8707 17.8791 28.2847C20.457 25.6988 23.8153 23.9532 27.4814 23.2934C31.1476 22.6336 34.9371 23.0929 38.317 24.6067C41.6968 26.1205 44.4968 28.6125 46.323 31.7322C49.6725 30.62 53.2916 30.4901 56.7184 31.3589C60.1453 32.2278 63.2246 34.056 65.5637 36.6105C67.9028 39.1649 69.3956 42.3297 69.8517 45.7013C70.3078 49.0729 69.7065 52.4984 68.1245 55.5408C67.1961 58.2895 65.3837 60.6855 62.9475 62.3849C60.5112 64.0844 57.5763 64.9998 54.5639 65H52.1681Z" fill="white"/>
<defs>
<linearGradient id="paint0_linear_112_409" x1="59.2509" y1="6.66649" x2="44.0859" y2="40.9961" gradientUnits="userSpaceOnUse">
<stop stop-color="#FFD88B"/>
<stop offset="1" stop-color="#FFA900"/>
</linearGradient>
</defs>
</svg>
