<svg width="70" height="70" viewBox="0 0 70 70" fill="none" xmlns="http://www.w3.org/2000/svg">
<path d="M52.1681 55H14.2382C10.5587 54.9973 7.02295 53.5969 4.3711 51.092C1.71925 48.5871 0.156924 45.172 0.0111913 41.5615C-0.134542 37.9511 1.14762 34.4252 3.58925 31.7221C6.03088 29.019 9.44269 27.3482 13.1104 27.0594C13.6335 23.4326 15.3012 20.058 17.8791 17.4106C20.457 14.7631 23.8153 12.9759 27.4814 12.3004C31.1476 11.6249 34.9371 12.0952 38.317 13.645C41.6968 15.1948 44.4968 17.7461 46.323 20.9401C49.6725 19.8015 53.2916 19.6684 56.7184 20.558C60.1453 21.4475 63.2246 23.3193 65.5637 25.9345C67.9028 28.5498 69.3956 31.79 69.8517 35.2418C70.3078 38.6937 69.7065 42.2007 68.1245 45.3156C67.1961 48.1297 65.3837 50.5828 62.9475 52.3227C60.5112 54.0626 57.5763 54.9998 54.5639 55H52.1681Z" fill="#E8E8E8"/>
<path d="M55.4797 59H24.594C21.5978 58.9978 18.7187 57.8579 16.5593 55.8191C14.4 53.7802 13.1278 51.0005 13.0091 48.0617C12.8904 45.123 13.9345 42.2531 15.9227 40.0529C17.9109 37.8527 20.689 36.4927 23.6756 36.2577C24.1015 33.3056 25.4596 30.5589 27.5587 28.4039C29.6578 26.249 32.3924 24.7943 35.3777 24.2445C38.363 23.6947 41.4488 24.0775 44.201 25.3389C46.9531 26.6004 49.2331 28.6771 50.7202 31.2768C53.4476 30.35 56.3946 30.2418 59.185 30.9658C61.9754 31.6898 64.4829 33.2134 66.3876 35.3421C68.2923 37.4708 69.5079 40.1081 69.8792 42.9178C70.2506 45.7274 69.761 48.582 68.4728 51.1173C67.7168 53.4079 66.241 55.4046 64.2572 56.8208C62.2734 58.237 59.8836 58.9999 57.4306 59H55.4797Z" fill="white"/>
</svg>
