<svg viewBox="0 0 70 70" fill="none" xmlns="http://www.w3.org/2000/svg">
<path d="M52.1681 48H14.2382C10.5587 47.9973 7.02295 46.5969 4.3711 44.092C1.71925 41.5871 0.156924 38.172 0.0111913 34.5615C-0.134542 30.9511 1.14762 27.4252 3.58925 24.7221C6.03088 22.019 9.44269 20.3482 13.1104 20.0594C13.6335 16.4326 15.3012 13.058 17.8791 10.4106C20.457 7.76307 23.8153 5.97587 27.4814 5.3004C31.1476 4.62492 34.9371 5.09516 38.317 6.64496C41.6968 8.19476 44.4968 10.7461 46.323 13.9401C49.6725 12.8015 53.2916 12.6684 56.7184 13.558C60.1453 14.4475 63.2246 16.3193 65.5637 18.9345C67.9028 21.5498 69.3956 24.79 69.8517 28.2418C70.3078 31.6937 69.7065 35.2007 68.1245 38.3156C67.1961 41.1297 65.3837 43.5828 62.9475 45.3227C60.5112 47.0626 57.5763 47.9998 54.5639 48H52.1681Z" fill="white"/>
<path d="M51.4797 52H20.594C17.5978 51.9978 14.7187 50.8579 12.5593 48.8191C10.4 46.7802 9.12778 44.0005 9.00911 41.0617C8.89044 38.123 9.93449 35.2531 11.9227 33.0529C13.9109 30.8527 16.689 29.4927 19.6756 29.2577C20.1015 26.3056 21.4596 23.5589 23.5587 21.4039C25.6578 19.249 28.3924 17.7943 31.3777 17.2445C34.363 16.6947 37.4488 17.0775 40.201 18.3389C42.9531 19.6004 45.2331 21.6771 46.7202 24.2768C49.4476 23.35 52.3946 23.2418 55.185 23.9658C57.9754 24.6898 60.4829 26.2134 62.3876 28.3421C64.2923 30.4708 65.5079 33.1081 65.8792 35.9178C66.2506 38.7274 65.761 41.582 64.4728 44.1173C63.7168 46.4079 62.241 48.4046 60.2572 49.8208C58.2734 51.237 55.8836 51.9999 53.4306 52H51.4797Z" fill="#E8E8E8"/>
<path d="M50.4295 51.9403C50.8182 52.0492 53.1641 59.1211 52.5381 61.4573C52.2317 62.573 51.4842 63.5188 50.4587 64.0884C49.4332 64.658 48.2131 64.805 47.0648 64.4973C45.9165 64.1896 44.9333 63.4522 44.33 62.4462C43.7267 61.4402 43.5522 60.2473 43.8447 59.128C44.4707 56.7918 50.0406 51.8316 50.4295 51.9403Z" fill="#4371E6"/>
<path d="M38.2352 41.4259C38.9267 41.6186 43.3638 53.1953 42.3547 56.9616C41.87 58.7702 40.5911 60.2865 38.7993 61.1771C37.0075 62.0677 34.8495 62.2595 32.8 61.7103C30.7506 61.1612 28.9776 59.9161 27.8711 58.2489C26.7646 56.5817 26.4152 54.6291 26.8998 52.8205C27.909 49.0542 37.5437 41.2334 38.2352 41.4259Z" fill="#4371E5"/>
<path d="M21.1236 49.2642C21.5123 49.3731 23.8582 56.4451 23.2322 58.7813C22.9258 59.8969 22.1783 60.8427 21.1528 61.4123C20.1273 61.9819 18.9072 62.1289 17.7589 61.8212C16.6106 61.5135 15.6274 60.7762 15.0241 59.7701C14.4208 58.7641 14.2463 57.5712 14.5388 56.4519C15.1648 54.1157 20.7347 49.1555 21.1236 49.2642Z" fill="#4371E5"/>
</svg>
