<svg viewBox="0 0 70 70" fill="none" xmlns="http://www.w3.org/2000/svg">
<path d="M70 18C70 27.9411 61.9411 36 52 36C42.0589 36 34 27.9411 34 18C34 8.05887 42.0589 0 52 0C61.9411 0 70 8.05887 70 18Z" fill="url(#paint0_linear_112_416)"/>
<path d="M52.1681 51H14.2382C10.5587 50.9973 7.02295 49.5969 4.3711 47.092C1.71925 44.5871 0.156924 41.172 0.0111913 37.5615C-0.134542 33.9511 1.14762 30.4252 3.58925 27.7221C6.03088 25.019 9.44269 23.3482 13.1104 23.0594C13.6335 19.4326 15.3012 16.058 17.8791 13.4106C20.457 10.7631 23.8153 8.97587 27.4814 8.3004C31.1476 7.62492 34.9371 8.09516 38.317 9.64496C41.6968 11.1948 44.4968 13.7461 46.323 16.9401C49.6725 15.8015 53.2916 15.6684 56.7184 16.558C60.1453 17.4475 63.2246 19.3193 65.5637 21.9345C67.9028 24.5498 69.3956 27.79 69.8517 31.2418C70.3078 34.6937 69.7065 38.2007 68.1245 41.3156C67.1961 44.1297 65.3837 46.5828 62.9475 48.3227C60.5112 50.0626 57.5763 50.9998 54.5639 51H52.1681Z" fill="white"/>
<path d="M51.4797 55H20.594C17.5978 54.9978 14.7187 53.8579 12.5593 51.8191C10.4 49.7802 9.12778 47.0005 9.00911 44.0617C8.89044 41.123 9.93449 38.2531 11.9227 36.0529C13.9109 33.8527 16.689 32.4927 19.6756 32.2577C20.1015 29.3056 21.4596 26.5589 23.5587 24.4039C25.6578 22.249 28.3924 20.7943 31.3777 20.2445C34.363 19.6947 37.4488 20.0775 40.201 21.3389C42.9531 22.6004 45.2331 24.6771 46.7202 27.2768C49.4476 26.35 52.3946 26.2418 55.185 26.9658C57.9754 27.6898 60.4829 29.2134 62.3876 31.3421C64.2923 33.4708 65.5079 36.1081 65.8792 38.9178C66.2506 41.7274 65.761 44.582 64.4728 47.1173C63.7168 49.4079 62.241 51.4046 60.2572 52.8208C58.2734 54.237 55.8836 54.9999 53.4306 55H51.4797Z" fill="#E8E8E8"/>
<path d="M50.4295 55.9403C50.8182 56.0492 53.1641 63.1211 52.5381 65.4573C52.2317 66.573 51.4842 67.5188 50.4587 68.0884C49.4332 68.658 48.2131 68.805 47.0648 68.4973C45.9165 68.1896 44.9333 67.4522 44.33 66.4462C43.7267 65.4402 43.5522 64.2473 43.8447 63.128C44.4707 60.7918 50.0406 55.8316 50.4295 55.9403Z" fill="#4371E6"/>
<path d="M38.2352 45.4259C38.9267 45.6186 43.3638 57.1953 42.3547 60.9616C41.87 62.7702 40.5911 64.2865 38.7993 65.1771C37.0075 66.0677 34.8495 66.2595 32.8 65.7103C30.7506 65.1612 28.9776 63.9161 27.8711 62.2489C26.7646 60.5817 26.4152 58.6291 26.8998 56.8205C27.909 53.0542 37.5437 45.2334 38.2352 45.4259Z" fill="#4371E5"/>
<path d="M21.1236 53.2642C21.5123 53.3731 23.8582 60.4451 23.2322 62.7813C22.9258 63.8969 22.1783 64.8427 21.1528 65.4123C20.1273 65.9819 18.9072 66.1289 17.7589 65.8212C16.6106 65.5135 15.6274 64.7762 15.0241 63.7701C14.4208 62.7641 14.2463 61.5712 14.5388 60.4519C15.1648 58.1157 20.7347 53.1555 21.1236 53.2642Z" fill="#4371E5"/>
<defs>
<linearGradient id="paint0_linear_112_416" x1="59.2509" y1="1.66649" x2="44.0859" y2="35.9961" gradientUnits="userSpaceOnUse">
<stop stop-color="#FFD88B"/>
<stop offset="1" stop-color="#FFA900"/>
</linearGradient>
</defs>
</svg>
