<svg width="70" height="70" viewBox="0 0 70 70" fill="none" xmlns="http://www.w3.org/2000/svg">
<path d="M52.1681 47H14.2382C10.5587 46.9973 7.02295 45.5969 4.3711 43.092C1.71925 40.5871 0.156924 37.172 0.0111913 33.5615C-0.134542 29.9511 1.14762 26.4252 3.58925 23.7221C6.03088 21.019 9.44269 19.3482 13.1104 19.0594C13.6335 15.4326 15.3012 12.058 17.8791 9.41056C20.457 6.76307 23.8153 4.97587 27.4814 4.3004C31.1476 3.62492 34.9371 4.09516 38.317 5.64496C41.6968 7.19476 44.4968 9.74613 46.323 12.9401C49.6725 11.8015 53.2916 11.6684 56.7184 12.558C60.1453 13.4475 63.2246 15.3193 65.5637 17.9345C67.9028 20.5498 69.3956 23.79 69.8517 27.2418C70.3078 30.6937 69.7065 34.2007 68.1245 37.3156C67.1961 40.1297 65.3837 42.5828 62.9475 44.3227C60.5112 46.0626 57.5763 46.9998 54.5639 47H52.1681Z" fill="url(#paint0_linear_112_417)"/>
<path d="M51.4797 51H20.594C17.5978 50.9978 14.7187 49.8579 12.5593 47.8191C10.4 45.7802 9.12778 43.0005 9.00911 40.0617C8.89044 37.123 9.93449 34.2531 11.9227 32.0529C13.9109 29.8527 16.689 28.4927 19.6756 28.2577C20.1015 25.3056 21.4596 22.5589 23.5587 20.4039C25.6578 18.249 28.3924 16.7943 31.3777 16.2445C34.363 15.6947 37.4488 16.0775 40.201 17.3389C42.9531 18.6004 45.2331 20.6771 46.7202 23.2768C49.4476 22.35 52.3946 22.2418 55.185 22.9658C57.9754 23.6898 60.4829 25.2134 62.3876 27.3421C64.2923 29.4708 65.5079 32.1081 65.8792 34.9178C66.2506 37.7274 65.761 40.582 64.4728 43.1173C63.7168 45.4079 62.241 47.4046 60.2572 48.8208C58.2734 50.237 55.8836 50.9999 53.4306 51H51.4797Z" fill="white"/>
<path d="M32.5835 49H40.254L35.8442 55.014L41 55.1046L30.1783 67L32.8004 57.9306H28L32.5835 49Z" fill="url(#paint1_linear_112_417)"/>
<path d="M48.9939 41H59.0245L53.2578 48.6845L60 48.8003L45.8485 64L49.2775 52.4114H43L48.9939 41Z" fill="url(#paint2_linear_112_417)"/>
<path d="M16.9939 41H27.0245L21.2578 48.6845L28 48.8003L13.8485 64L17.2775 52.4114H11L16.9939 41Z" fill="url(#paint3_linear_112_417)"/>
<defs>
<linearGradient id="paint0_linear_112_417" x1="35" y1="4" x2="54.7148" y2="52.5387" gradientUnits="userSpaceOnUse">
<stop stop-color="#ECEBEB"/>
<stop offset="1" stop-color="white" stop-opacity="0.75"/>
</linearGradient>
<linearGradient id="paint1_linear_112_417" x1="33.304" y1="58" x2="27.3442" y2="55.6474" gradientUnits="userSpaceOnUse">
<stop stop-color="#FFD100"/>
<stop offset="1" stop-color="#FFF0AA"/>
</linearGradient>
<linearGradient id="paint2_linear_112_417" x1="49.936" y1="52.5" x2="42.1918" y2="49.3715" gradientUnits="userSpaceOnUse">
<stop stop-color="#FFD100"/>
<stop offset="1" stop-color="#FFF0AA"/>
</linearGradient>
<linearGradient id="paint3_linear_112_417" x1="17.936" y1="52.5" x2="10.1918" y2="49.3715" gradientUnits="userSpaceOnUse">
<stop stop-color="#FFD100"/>
<stop offset="1" stop-color="#FFF0AA"/>
</linearGradient>
</defs>
</svg>
