<svg width="70" height="70" viewBox="0 0 70 70" fill="none" xmlns="http://www.w3.org/2000/svg">
<path d="M36.4001 54.32V15.68L42.9801 9.1C43.5401 8.54 43.5401 7.63 42.9801 7.07C42.4201 6.51 41.5101 6.51 40.9501 7.07L36.4001 11.62V5.25C36.4001 4.48 35.7701 3.85 35.0001 3.85C34.2301 3.85 33.6001 4.48 33.6001 5.25V11.62L29.0501 7.07C28.4901 6.51 27.5801 6.51 27.0201 7.07C26.4601 7.63 26.4601 8.54 27.0201 9.1L33.6001 15.68V54.32L27.0201 60.9C26.4601 61.46 26.4601 62.37 27.0201 62.93C27.3001 63.21 27.6501 63.35 28.0001 63.35C28.3501 63.35 28.7001 63.21 28.9801 62.93L33.5301 58.38V64.75C33.5301 65.52 34.1601 66.15 34.9301 66.15C35.7001 66.15 36.3301 65.52 36.3301 64.75V58.38L40.8801 62.93C41.1601 63.21 41.5101 63.35 41.8601 63.35C42.2101 63.35 42.5601 63.21 42.8401 62.93C43.4001 62.37 43.4001 61.46 42.8401 60.9L36.4001 54.32Z" fill="#A0C8D7"/>
<path d="M63.1401 42C62.9301 41.23 62.1601 40.81 61.3901 41.02L52.4301 43.4L35.7001 33.74L18.9701 24.08L16.5901 15.12C16.3801 14.35 15.6101 13.93 14.8401 14.14C14.0701 14.35 13.6501 15.12 13.8601 15.89L15.5401 22.05L9.94009 18.9C9.24009 18.48 8.40009 18.76 7.98009 19.39C7.56009 20.09 7.84009 20.93 8.54009 21.35L14.0701 24.57L7.9101 26.25C7.1401 26.46 6.72009 27.23 6.93009 28C7.07009 28.63 7.70009 29.05 8.33009 29.05C8.47009 29.05 8.61009 29.05 8.68009 28.98L17.5701 26.6L34.3001 36.26L51.0301 45.92L53.4101 54.88C53.5501 55.51 54.1801 55.93 54.8101 55.93C54.9501 55.93 55.0901 55.93 55.1601 55.86C55.9301 55.65 56.3501 54.88 56.1401 54.11L54.4601 47.95L59.9901 51.17C60.2001 51.31 60.4801 51.38 60.6901 51.38C61.1801 51.38 61.6701 51.1 61.9501 50.68C62.3701 49.98 62.0901 49.14 61.3901 48.72L55.8601 45.5L62.0201 43.82C62.8601 43.54 63.3501 42.77 63.1401 42V42Z" fill="#A0C8D7"/>
<path d="M62.0901 26.25L55.9301 24.57L61.4601 21.35C62.1601 20.93 62.3701 20.09 62.0201 19.39C61.6001 18.69 60.7601 18.48 60.0601 18.9L54.5301 22.12L56.2101 15.96C56.4201 15.19 55.9301 14.42 55.2301 14.21C54.4601 14 53.6901 14.49 53.4801 15.19L51.1001 24.15L34.3001 33.74L17.5701 43.4L8.61008 41.02C7.84008 40.81 7.07008 41.3 6.86008 42C6.65008 42.77 7.14008 43.54 7.84008 43.75L14.0001 45.43L8.47008 48.65C7.77008 49.07 7.56008 49.91 7.91008 50.61C8.19008 51.1 8.68008 51.31 9.17008 51.31C9.38008 51.31 9.66008 51.24 9.87008 51.1L15.4001 47.88L13.7201 54.04C13.5101 54.81 14.0001 55.58 14.7001 55.79C14.8401 55.79 14.9801 55.86 15.0501 55.86C15.6801 55.86 16.2401 55.44 16.4501 54.81L18.8301 45.85L35.7001 36.26L52.4301 26.6L61.3901 28.98C61.5301 28.98 61.6701 29.05 61.7401 29.05C62.3701 29.05 62.9301 28.63 63.1401 28C63.3501 27.23 62.8601 26.46 62.0901 26.25Z" fill="#A0C8D7"/>
<path d="M44.0299 50.68L34.9999 45.43L25.9699 50.61V40.18L16.9399 35L25.9699 29.75V19.32L34.9999 24.57L44.0299 19.39V29.82L53.0599 35L44.0299 40.25V50.68ZM34.9999 42.14L41.1599 45.71V38.57L47.3199 35L41.1599 31.43V24.29L34.9999 27.86L28.8399 24.29V31.43L22.6799 35L28.8399 38.57V45.71L34.9999 42.14V42.14Z" fill="#77A4BD"/>
</svg>
