<svg viewBox="0 0 70 70" fill="none" xmlns="http://www.w3.org/2000/svg">
<path d="M52.1681 51H14.2382C10.5587 50.9973 7.02295 49.5969 4.3711 47.092C1.71925 44.5871 0.156924 41.172 0.0111913 37.5615C-0.134542 33.9511 1.14762 30.4252 3.58925 27.7221C6.03088 25.019 9.44269 23.3482 13.1104 23.0594C13.6335 19.4326 15.3012 16.058 17.8791 13.4106C20.457 10.7631 23.8153 8.97587 27.4814 8.3004C31.1476 7.62492 34.9371 8.09516 38.317 9.64496C41.6968 11.1948 44.4968 13.7461 46.323 16.9401C49.6725 15.8015 53.2916 15.6684 56.7184 16.558C60.1453 17.4475 63.2246 19.3193 65.5637 21.9345C67.9028 24.5498 69.3956 27.79 69.8517 31.2418C70.3078 34.6937 69.7065 38.2007 68.1245 41.3156C67.1961 44.1297 65.3837 46.5828 62.9475 48.3227C60.5112 50.0626 57.5763 50.9998 54.5639 51H52.1681Z" fill="url(#paint0_linear_112_419)"/>
<path d="M51.4797 55H20.594C17.5978 54.9978 14.7187 53.8579 12.5593 51.8191C10.4 49.7802 9.12778 47.0005 9.00911 44.0617C8.89044 41.123 9.93449 38.2531 11.9227 36.0529C13.9109 33.8527 16.689 32.4927 19.6756 32.2577C20.1015 29.3056 21.4596 26.5589 23.5587 24.4039C25.6578 22.249 28.3924 20.7943 31.3777 20.2445C34.363 19.6947 37.4488 20.0775 40.201 21.3389C42.9531 22.6004 45.2331 24.6771 46.7202 27.2768C49.4476 26.35 52.3946 26.2418 55.185 26.9658C57.9754 27.6898 60.4829 29.2134 62.3876 31.3421C64.2923 33.4708 65.5079 36.1081 65.8792 38.9178C66.2506 41.7274 65.761 44.582 64.4728 47.1173C63.7168 49.4079 62.241 51.4046 60.2572 52.8208C58.2734 54.237 55.8836 54.9999 53.4306 55H51.4797Z" fill="white"/>
<path d="M49 53.9942C49 53.9942 62.7802 54.1011 65.7638 53.3995C68.7473 52.6978 68.7435 49.0562 65.7638 48.1585C62.7841 47.2608 61.7657 50.4695 61.7657 50.4695" stroke="#64646B" stroke-width="2" stroke-linecap="round"/>
<path d="M43 58.4311C43 58.4311 53.9787 57.4612 58.8186 58.4311C63.6585 59.4009 62.1174 62.1832 59.8236 62.3104C57.5299 62.4376 55.4132 60.9639 55.4132 60.9639" stroke="#64646B" stroke-width="2" stroke-linecap="round"/>
<path d="M14 57H20" stroke="#64646B" stroke-width="2" stroke-linecap="round"/>
<path d="M24 57H33" stroke="#64646B" stroke-width="2" stroke-linecap="round"/>
<path d="M7 61H30" stroke="#64646B" stroke-width="2" stroke-linecap="round"/>
<path d="M37 57H39" stroke="#64646B" stroke-width="2" stroke-linecap="round"/>
<path d="M21 51H37" stroke="#64646B" stroke-width="2" stroke-linecap="round"/>
<defs>
<linearGradient id="paint0_linear_112_419" x1="35" y1="8" x2="54.7148" y2="56.5387" gradientUnits="userSpaceOnUse">
<stop stop-color="white"/>
<stop offset="1" stop-color="white" stop-opacity="0.75"/>
</linearGradient>
</defs>
</svg>
