<svg width="46" height="36" viewBox="0 0 46 36" fill="none" xmlns="http://www.w3.org/2000/svg"><path d="M44.029 11.429c0 5.806-4.708 10.514-10.515 10.514S23 17.235 23 11.429C23 5.622 27.707.914 33.514.914c5.807 0 10.515 4.708 10.515 10.515z" fill="url(#prefix__paint0_linear_76_1395)"/><path d="M34.282 33.114H9.357a9.455 9.455 0 01-6.485-2.568 9.122 9.122 0 01-2.865-6.263 9.096 9.096 0 012.352-6.466 9.426 9.426 0 016.256-3.064 11.43 11.43 0 013.134-6.34 11.786 11.786 0 016.31-3.358c2.41-.444 4.9-.135 7.12.883a11.641 11.641 0 015.262 4.794 11.93 11.93 0 016.831-.251 11.759 11.759 0 015.813 3.533 11.418 11.418 0 012.818 6.116c.3 2.269-.096 4.573-1.136 6.62a9.21 9.21 0 01-3.402 4.605 9.485 9.485 0 01-5.509 1.76h-1.574z" fill="url(#prefix__paint1_linear_76_1395)"/><path d="M33.83 35.743H13.533a7.701 7.701 0 01-5.28-2.09 7.423 7.423 0 01-2.333-5.098 7.402 7.402 0 011.915-5.263 7.677 7.677 0 015.095-2.494 9.301 9.301 0 012.552-5.161 9.598 9.598 0 015.138-2.734 9.707 9.707 0 015.798.72 9.478 9.478 0 014.284 3.902 9.717 9.717 0 015.562-.205 9.575 9.575 0 014.734 2.876 9.293 9.293 0 012.294 4.978 9.22 9.22 0 01-.924 5.389 7.495 7.495 0 01-2.77 3.748 7.725 7.725 0 01-4.486 1.432H33.83z" fill="#fff"/><defs><linearGradient id="prefix__paint0_linear_76_1395" x1="37.75" y1="1.888" x2="28.892" y2="21.941" gradientUnits="userSpaceOnUse"><stop stop-color="#FFD88B"/><stop offset="1" stop-color="#FFA900"/></linearGradient><linearGradient id="prefix__paint1_linear_76_1395" x1="23" y1="4.857" x2="35.955" y2="36.754" gradientUnits="userSpaceOnUse"><stop stop-color="#fff"/><stop offset="1" stop-color="#fff" stop-opacity=".75"/></linearGradient></defs></svg>
