<svg width="306" height="94" viewBox="0 0 306 94" fill="none" xmlns="http://www.w3.org/2000/svg"><path d="M0 55.42C0 31.44 0 19.45 6.007 11.447a30 30 0 019.456-8.233c8.753-4.85 20.63-3.2 44.383.1l220.109 30.575c6.666.925 9.998 1.389 12.714 2.553a21.996 21.996 0 0112.551 14.415c.78 2.85.78 6.215.78 12.944 0 7.629 0 11.443-.936 14.549a22 22 0 01-14.715 14.715c-3.106.936-6.92.936-14.549.936H38.58c-15.525 0-23.288 0-28.854-3.742a22 22 0 01-5.984-5.984C0 78.708 0 70.945 0 55.421z" fill="url(#prefix__paint0_linear_76_1986)" fill-opacity=".6"/><defs><linearGradient id="prefix__paint0_linear_76_1986" x1="153" y1="23.5" x2="153" y2="84" gradientUnits="userSpaceOnUse"><stop stop-color="#C1C1C1" stop-opacity=".63"/><stop offset="1" stop-color="#949494" stop-opacity=".55"/></linearGradient></defs></svg>
