<svg width="48" height="48" fill="none" xmlns="http://www.w3.org/2000/svg"><path d="M41.582 23.394L25.297 10.678a2.128 2.128 0 00-2.595 0L6.418 23.394a1.89 1.89 0 00-.742 1.49V44.07c0 1.066.913 1.93 2.04 1.93h32.568c1.126 0 2.039-.864 2.039-1.93V24.883a1.89 1.89 0 00-.741-1.489zM26.156 42.14h-4.312V31.452h4.312v10.687zm12.089 0h-8.01V29.521c0-1.066-.913-1.93-2.04-1.93h-8.39c-1.127 0-2.04.864-2.04 1.93V42.14h-8.01V25.793L24 14.67l14.245 11.124V42.14z" fill="#fff"/><path d="M47.236 19.522A1247.53 1247.53 0 0133.76 9.159c-1.39-1.182-2.85-2.3-4.263-3.383-1.383-1.06-2.813-2.156-4.133-3.28a2.125 2.125 0 00-2.728 0c-1.32 1.124-2.75 2.22-4.134 3.28C17.09 6.858 15.63 7.977 14.24 9.16 9.59 12.784 5.307 16.077.765 19.522c-.88.666-1.021 1.881-.317 2.713.704.832 1.988.966 2.866.3a1241.632 1241.632 0 0013.621-10.478c1.32-1.124 2.75-2.22 4.134-3.28.967-.741 1.957-1.5 2.931-2.284.974.784 1.964 1.543 2.931 2.284 1.384 1.06 2.814 2.156 4.134 3.28a1238.362 1238.362 0 0013.621 10.478c.376.285.826.424 1.273.424a2.08 2.08 0 001.593-.724c.705-.832.563-2.047-.316-2.713z" fill="#fff"/></svg>
