<svg viewBox="0 0 40 40" fill="none" xmlns="http://www.w3.org/2000/svg"><path d="M34.651 19.495L21.081 8.898a1.773 1.773 0 00-2.163 0L5.348 19.495c-.392.306-.618.76-.618 1.241v15.989c0 .888.76 1.608 1.7 1.608h27.14c.938 0 1.7-.72 1.7-1.608V20.736c0-.48-.227-.935-.619-1.24zM21.797 35.116h-3.594V26.21h3.593v8.906zm10.074 0h-6.676V24.601c0-.889-.76-1.609-1.699-1.609h-6.992c-.94 0-1.7.72-1.7 1.609v10.515H8.13V21.494l11.87-9.27 11.872 9.27v13.622z" fill="#fff"/><path d="M39.363 16.268a1040.67 1040.67 0 01-11.23-8.635c-1.158-.985-2.374-1.917-3.552-2.82-1.152-.883-2.345-1.796-3.444-2.733a1.771 1.771 0 00-2.274 0c-1.1.937-2.292 1.85-3.444 2.733-1.178.902-2.394 1.835-3.552 2.82a1035.17 1035.17 0 01-11.23 8.635c-.732.555-.85 1.568-.264 2.261.587.693 1.657.806 2.389.25a1033.048 1033.048 0 0011.35-8.731c1.1-.937 2.292-1.85 3.445-2.734.807-.618 1.631-1.25 2.443-1.903.812.653 1.637 1.285 2.443 1.903 1.152.883 2.345 1.797 3.444 2.734l.057.046c3.898 3.039 7.487 5.799 11.294 8.685.314.238.689.353 1.062.353.498 0 .991-.206 1.327-.603.587-.693.468-1.706-.264-2.26z" fill="#fff"/></svg>
