<svg width="28" height="28" fill="none" xmlns="http://www.w3.org/2000/svg"><path d="M5.814 26.519h0a.797.797 0 00.848.06l6.921-3.638h0a.895.895 0 01.834 0s0 0 0 0l6.921 3.64c.275.144.597.12.847-.062h0a.797.797 0 00.32-.787l-1.321-7.708h0a.896.896 0 01.257-.792h0l5.6-5.458h0c.222-.217.3-.53.204-.825a.795.795 0 00-.65-.547l-7.739-1.125h0a.895.895 0 01-.674-.49L5.814 26.519zm0 0a.796.796 0 01-.32-.787l1.322-7.707m-1.002 8.494l3.33-17.243-7.74 1.125s0 0 0 0a.797.797 0 00-.649.547.796.796 0 00.204.825l5.6 5.459h0c.21.206.307.502.257.793m0 0l-.493-.085m.493.084h0l-.493-.084m0 0a.396.396 0 00-.113-.35l.113.35zm8.398-16.166l3.461 7.012-8.813-.221.449.221h0s0 0 0 0l3.46-7.012A.796.796 0 0114 1.326c.31 0 .584.17.721.448h0z" fill="url(#prefix__paint0_radial_76_1537)" stroke="#fff"/><defs><radialGradient id="prefix__paint0_radial_76_1537" cx="0" cy="0" r="1" gradientUnits="userSpaceOnUse" gradientTransform="matrix(-25.99995 5.00021 -7.64175 -39.73535 26 15)"><stop offset=".495" stop-color="#FFDC64"/><stop offset=".516" stop-color="#FFC850"/></radialGradient></defs></svg>
