<svg width="28" height="27" fill="none" xmlns="http://www.w3.org/2000/svg"><path d="M5.305 26.098a1.297 1.297 0 0 0 1.374.1l6.922-3.64a.394.394 0 0 1 .368 0l6.922 3.64c.443.232.97.194 1.374-.1.404-.294.603-.783.518-1.276l-1.321-7.708a.395.395 0 0 1 .113-.35l5.6-5.458c.359-.35.485-.861.33-1.337a1.295 1.295 0 0 0-1.052-.888l-7.74-1.124a.395.395 0 0 1-.297-.217L14.955.727A1.296 1.296 0 0 0 13.785 0c-.5 0-.948.278-1.17.727l-3.46 7.012a.395.395 0 0 1-.298.217L1.117 9.08a1.297 1.297 0 0 0-1.052.888c-.155.476-.028.988.33 1.337l5.6 5.459a.396.396 0 0 1 .113.35l-1.322 7.708c-.084.493.115.982.52 1.276Z" fill="url(#a)"/><defs><radialGradient id="a" cx="0" cy="0" r="1" gradientUnits="userSpaceOnUse" gradientTransform="rotate(169.114 12.217 8.316) scale(26.4764 40.4635)"><stop offset=".495" stop-color="#FFDC64"/><stop offset=".516" stop-color="#FFC850"/></radialGradient></defs></svg>
