<svg viewBox="0 0 65 48" fill="none" xmlns="http://www.w3.org/2000/svg"><path d="M32.5 11.076c-.797 0-1.444-.627-1.444-1.4V1.4C31.056.627 31.703 0 32.5 0c.797 0 1.444.627 1.444 1.4v8.277c0 .772-.647 1.4-1.444 1.4ZM9.99 32.884H1.443c-.797 0-1.444-.627-1.444-1.4 0-.772.647-1.399 1.444-1.399H9.99c.797 0 1.444.627 1.444 1.4 0 .772-.647 1.399-1.444 1.399ZM63.556 32.884h-8.544c-.798 0-1.445-.627-1.445-1.4 0-.772.647-1.399 1.445-1.399h8.544c.797 0 1.444.627 1.444 1.4 0 .772-.647 1.399-1.444 1.399ZM48.418 17.463c-.37 0-.74-.136-1.021-.41a1.368 1.368 0 0 1 0-1.978l6.04-5.854a1.477 1.477 0 0 1 2.043 0 1.368 1.368 0 0 1 0 1.98l-6.041 5.852c-.282.274-.651.41-1.021.41ZM16.582 17.463c-.37 0-.74-.136-1.021-.41L9.519 11.2a1.368 1.368 0 0 1 0-1.979 1.477 1.477 0 0 1 2.042 0l6.042 5.854a1.368 1.368 0 0 1 0 1.978c-.281.274-.651.41-1.02.41ZM23.886 12.737a1.447 1.447 0 0 1-1.335-.864L20.9 8.014c-.305-.714.046-1.532.783-1.828.736-.295 1.582.043 1.887.758l1.649 3.857c.306.714-.045 1.532-.782 1.828a1.5 1.5 0 0 1-.552.107ZM41.114 12.736c-.184 0-.372-.034-.553-.107-.737-.296-1.087-1.114-.781-1.828l1.65-3.857c.305-.714 1.15-1.054 1.887-.757.737.296 1.087 1.114.781 1.828l-1.65 3.857c-.23.54-.767.864-1.334.864ZM53.298 24.538a1.448 1.448 0 0 1-1.335-.864c-.305-.714.045-1.532.782-1.828l3.981-1.597c.739-.296 1.582.043 1.887.757.306.715-.044 1.533-.781 1.829l-3.982 1.597c-.18.072-.367.106-.552.106ZM11.701 24.538c-.184 0-.37-.034-.551-.107l-3.982-1.597c-.737-.295-1.087-1.114-.782-1.828.305-.715 1.15-1.055 1.887-.758l3.982 1.597c.737.296 1.087 1.114.782 1.828-.23.54-.769.865-1.336.865ZM46.548 40.914H18.452c-.51 0-.984-.26-1.244-.687a16.78 16.78 0 0 1-2.465-8.742c0-9.485 7.965-17.202 17.756-17.202S50.256 22 50.256 31.485c0 3.077-.853 6.1-2.465 8.742-.26.426-.732.687-1.243.687Zm-27.246-2.798h26.396a14.028 14.028 0 0 0 1.67-6.632c0-7.941-6.67-14.403-14.868-14.403s-14.868 6.462-14.868 14.403c0 2.313.575 4.59 1.67 6.632Z" fill="#fff"/><path d="M58.031 40.914H6.97c-.798 0-1.445-.627-1.445-1.399s.647-1.4 1.445-1.4H58.03c.797 0 1.444.628 1.444 1.4 0 .772-.646 1.4-1.444 1.4ZM50.973 47.751H14.027c-.797 0-1.444-.627-1.444-1.399s.647-1.4 1.444-1.4h36.946c.797 0 1.444.628 1.444 1.4 0 .773-.646 1.4-1.444 1.4ZM31.793 33.363a1 1 0 0 0 1.414 0l6.364-6.364a1 1 0 1 0-1.414-1.415L32.5 31.241l-5.657-5.657A1 1 0 0 0 25.43 27l6.364 6.364ZM31.5 16.656v16h2v-16h-2Z" fill="#fff"/></svg>
