<svg width="26" height="28" viewBox="0 0 26 28" fill="none" xmlns="http://www.w3.org/2000/svg">
<path d="M5.30854 4.92553V3.76425C5.33361 1.81363 6.97876 0.0938585 8.96786 0.0174892C10.7587 -0.00582972 14.8815 -0.00582972 16.6724 0.0174892C18.623 0.0926926 20.3061 1.7734 20.3317 3.76425V4.92553H25.6403V7.25742H23.0507V24.2277C23.0256 26.1795 21.3805 27.8981 19.3908 27.9751C15.0407 28.0305 10.6894 27.9762 6.33807 27.9762C4.3583 27.9506 2.6158 26.2506 2.59014 24.2277V7.25742H0V4.92553H5.30854V4.92553ZM20.7188 7.25742H4.92087C4.9127 12.9239 4.84974 18.591 4.92203 24.2569C4.9506 24.9856 5.57788 25.6152 6.30892 25.6438C10.6497 25.6992 14.9911 25.6992 19.3314 25.6438C20.0735 25.6152 20.7089 24.9658 20.7188 24.2126V7.25742V7.25742ZM17.9783 4.92553C17.9701 4.44166 17.9783 3.77533 17.9783 3.77533C17.9783 3.77533 17.9439 2.3657 16.6124 2.34879C14.8617 2.32606 10.7786 2.32606 9.0279 2.34879C8.28578 2.37736 7.65034 3.02621 7.64043 3.77941V4.92553H17.9783V4.92553Z" fill="white"/>
<path d="M9.03609 11.6915H7.28717V21.2097H9.03609V11.6915Z" fill="white"/>
<path d="M13.6946 11.6915H11.9457V21.2097H13.6946V11.6915Z" fill="white"/>
<path d="M18.3636 11.6915H16.6147V21.2097H18.3636V11.6915Z" fill="white"/>
</svg>

